<?xml version="1.0" encoding="iso-8859-1"?>
<!-- Generator: Adobe Illustrator 17.1.0, SVG Export Plug-In . SVG Version: 6.00 Build 0)  -->
<!DOCTYPE svg PUBLIC "-//W3C//DTD SVG 1.1//EN" "http://www.w3.org/Graphics/SVG/1.1/DTD/svg11.dtd">
<svg version="1.1" id="Capa_1" xmlns="http://www.w3.org/2000/svg" xmlns:xlink="http://www.w3.org/1999/xlink" x="0px" y="0px"
	 viewBox="0 0 511 511" style="enable-background:new 0 0 511 511;" xml:space="preserve">
<path d="M503.5,180H439v-0.5c0-12.958-10.542-23.5-23.5-23.5S392,166.542,392,179.5v0.5h-64.5c-4.142,0-7.5,3.358-7.5,7.5
	s3.358,7.5,7.5,7.5H384v8.5c0,0.168,0.01,0.333,0.013,0.5h-48.359c-0.005,0-0.01,0-0.015,0H175.38c-0.014,0-0.028,0-0.042,0h-48.351
	c0.003-0.167,0.013-0.332,0.013-0.5V195h56.5c4.142,0,7.5-3.358,7.5-7.5s-3.358-7.5-7.5-7.5H119v-0.5
	c0-12.958-10.542-23.5-23.5-23.5S72,166.542,72,179.5v0.5H7.5c-4.142,0-7.5,3.358-7.5,7.5s3.358,7.5,7.5,7.5H64v8.5
	c0,17.369,14.131,31.5,31.5,31.5c11.737,0,21.987-6.457,27.406-16h47.188l6.997,20.991c4.68,14.041,16.67,24.073,30.909,26.459
	v11.495c-4.765,2.647-8,7.728-8,13.555v8c0,30.603,24.897,55.5,55.5,55.5s55.5-24.897,55.5-55.5v-8c0-5.827-3.235-10.908-8-13.555
	V266.45c14.238-2.386,26.229-12.418,30.909-26.459L340.906,219h47.188c5.419,9.543,15.669,16,27.406,16
	c17.369,0,31.5-14.131,31.5-31.5V195h56.5c4.142,0,7.5-3.358,7.5-7.5S507.642,180,503.5,180z M87,179.5c0-4.687,3.813-8.5,8.5-8.5
	s8.5,3.813,8.5,8.5v0.5H87V179.5z M95.5,220c-9.098,0-16.5-7.402-16.5-16.5V195h33v8.5C112,212.598,104.598,220,95.5,220z M288,267
	v9h-65v-9H288z M264,299.5c0,4.687-3.813,8.5-8.5,8.5s-8.5-3.813-8.5-8.5s3.813-8.5,8.5-8.5S264,294.813,264,299.5z M296,299.5
	c0,22.332-18.168,40.5-40.5,40.5S215,321.832,215,299.5v-8c0-0.276,0.224-0.5,0.5-0.5h18.097c-1.027,2.638-1.597,5.503-1.597,8.5
	c0,12.958,10.542,23.5,23.5,23.5s23.5-10.542,23.5-23.5c0-2.997-0.57-5.862-1.597-8.5H295.5c0.276,0,0.5,0.224,0.5,0.5V299.5z
	 M319.678,235.248c-3.34,10.02-12.68,16.752-23.243,16.752h-81.871c-10.563,0-19.903-6.732-23.243-16.752L185.906,219h139.188
	L319.678,235.248z M407,179.5c0-4.687,3.813-8.5,8.5-8.5s8.5,3.813,8.5,8.5v0.5h-17V179.5z M432,203.5c0,9.098-7.402,16.5-16.5,16.5
	s-16.5-7.402-16.5-16.5V195h33V203.5z"/>
<g>
</g>
<g>
</g>
<g>
</g>
<g>
</g>
<g>
</g>
<g>
</g>
<g>
</g>
<g>
</g>
<g>
</g>
<g>
</g>
<g>
</g>
<g>
</g>
<g>
</g>
<g>
</g>
<g>
</g>
</svg>
