<?xml version="1.0" encoding="iso-8859-1"?>
<!-- Generator: Adobe Illustrator 17.1.0, SVG Export Plug-In . SVG Version: 6.00 Build 0)  -->
<!DOCTYPE svg PUBLIC "-//W3C//DTD SVG 1.1//EN" "http://www.w3.org/Graphics/SVG/1.1/DTD/svg11.dtd">
<svg version="1.1" id="Capa_1" xmlns="http://www.w3.org/2000/svg" xmlns:xlink="http://www.w3.org/1999/xlink" x="0px" y="0px"
	 viewBox="0 0 511 511" style="enable-background:new 0 0 511 511;" xml:space="preserve">
<g>
	<path d="M399.5,288c-28.047,0-53.706,10.413-73.322,27.572l-9.633-9.632c1.568-3.147,2.454-6.691,2.454-10.439v-80
		c0-3.49-0.771-6.801-2.141-9.782l9.836-9.836C346.244,212.771,371.699,223,399.5,223c61.481,0,111.5-50.019,111.5-111.5
		S460.981,0,399.5,0S288,50.019,288,111.5c0,28.294,10.599,54.155,28.028,73.836l-9.447,9.447
		c-3.303-1.774-7.076-2.783-11.081-2.783h-80c-3.748,0-7.292,0.887-10.439,2.454l-9.633-9.632
		C212.587,165.206,223,139.547,223,111.5C223,50.019,172.981,0,111.5,0S0,50.019,0,111.5S50.019,223,111.5,223
		c28.047,0,53.706-10.414,73.322-27.572l9.633,9.632c-1.568,3.147-2.454,6.691-2.454,10.439v80c0,4.005,1.009,7.777,2.783,11.081
		l-9.448,9.447C165.655,298.6,139.794,288,111.5,288C50.019,288,0,338.019,0,399.5S50.019,511,111.5,511S223,460.981,223,399.5
		c0-27.801-10.229-53.256-27.118-72.805l9.836-9.836c2.981,1.371,6.292,2.141,9.782,2.141h80c3.749,0,7.292-0.887,10.439-2.454
		l9.633,9.632C298.413,345.794,288,371.453,288,399.5c0,61.481,50.019,111.5,111.5,111.5S511,460.981,511,399.5
		S460.981,288,399.5,288z M303,111.5c0-53.21,43.29-96.5,96.5-96.5S496,58.29,496,111.5S452.71,208,399.5,208
		c-23.664,0-45.362-8.567-62.167-22.756l46.458-46.458c4.628,2.675,9.99,4.214,15.709,4.214c5.972,0,11.561-1.67,16.325-4.569
		l34.94,34.941c1.464,1.464,3.384,2.196,5.303,2.196c1.919,0,3.839-0.732,5.303-2.196c2.929-2.929,2.929-7.678,0-10.606
		l-34.94-34.941C429.33,123.061,431,117.472,431,111.5c0-17.369-14.131-31.5-31.5-31.5c-5.972,0-11.561,1.67-16.325,4.569
		l-34.94-34.941c-2.928-2.929-7.677-2.929-10.606,0s-2.929,7.678,0,10.606l34.94,34.941C369.67,99.939,368,105.528,368,111.5
		c0,6.223,1.821,12.025,4.948,16.916l-46.3,46.3C311.924,157.771,303,135.658,303,111.5z M399.5,128
		c-3.445,0-6.644-1.064-9.293-2.877c-0.352-0.705-0.816-1.368-1.404-1.956c-0.691-0.69-1.485-1.212-2.33-1.577
		c-2.168-2.793-3.473-6.288-3.473-10.09c0-9.098,7.402-16.5,16.5-16.5s16.5,7.402,16.5,16.5S408.598,128,399.5,128z M111.5,208
		C58.29,208,15,164.71,15,111.5S58.29,15,111.5,15S208,58.29,208,111.5c0,23.911-8.746,45.816-23.201,62.692l-46.368-46.368
		c2.898-4.764,4.569-10.353,4.569-16.325s-1.67-11.561-4.569-16.325l34.94-34.941c2.929-2.929,2.929-7.678,0-10.606
		c-2.929-2.929-7.678-2.929-10.606,0l-34.94,34.941C123.061,81.67,117.472,80,111.5,80C94.131,80,80,94.131,80,111.5
		c0,5.972,1.67,11.561,4.569,16.325l-34.94,34.941c-2.929,2.929-2.929,7.678,0,10.606c1.464,1.464,3.384,2.196,5.303,2.196
		s3.839-0.732,5.303-2.196l34.94-34.941C99.939,141.33,105.528,143,111.5,143s11.561-1.671,16.325-4.569l46.368,46.368
		C157.316,199.254,135.411,208,111.5,208z M95,111.5c0-9.098,7.402-16.5,16.5-16.5s16.5,7.402,16.5,16.5s-7.402,16.5-16.5,16.5
		S95,120.598,95,111.5z M208,399.5c0,53.21-43.29,96.5-96.5,96.5S15,452.71,15,399.5S58.29,303,111.5,303
		c24.158,0,46.271,8.924,63.216,23.648l-46.3,46.3C123.525,369.821,117.723,368,111.5,368c-5.972,0-11.561,1.67-16.325,4.569
		l-34.94-34.941c-2.928-2.929-7.677-2.929-10.606,0s-2.929,7.678,0,10.606l34.94,34.941C81.67,387.939,80,393.528,80,399.5
		c0,17.369,14.131,31.5,31.5,31.5c5.972,0,11.561-1.67,16.325-4.569l34.94,34.941c1.464,1.464,3.384,2.196,5.303,2.196
		c1.919,0,3.839-0.732,5.303-2.196c2.929-2.929,2.929-7.678,0-10.606l-34.94-34.941C141.33,411.061,143,405.472,143,399.5
		c0-5.719-1.54-11.081-4.214-15.709l46.458-46.458C199.433,354.138,208,375.836,208,399.5z M111.5,383c9.098,0,16.5,7.402,16.5,16.5
		s-7.402,16.5-16.5,16.5S95,408.598,95,399.5S102.402,383,111.5,383z M215.5,304c-4.687,0-8.5-3.813-8.5-8.5v-80
		c0-4.687,3.813-8.5,8.5-8.5h80c4.687,0,8.5,3.813,8.5,8.5v80c0,4.687-3.813,8.5-8.5,8.5H215.5z M399.5,496
		c-53.21,0-96.5-43.29-96.5-96.5c0-23.911,8.746-45.816,23.201-62.692l46.368,46.368C369.671,387.939,368,393.528,368,399.5
		s1.67,11.561,4.569,16.325l-34.94,34.941c-2.929,2.929-2.929,7.678,0,10.606c1.464,1.464,3.384,2.196,5.303,2.196
		s3.839-0.732,5.303-2.196l34.94-34.941C387.939,429.33,393.528,431,399.5,431c17.369,0,31.5-14.131,31.5-31.5
		c0-5.972-1.67-11.561-4.569-16.325l34.94-34.941c2.929-2.929,2.929-7.678,0-10.606c-2.929-2.929-7.678-2.929-10.606,0
		l-34.94,34.941C411.061,369.67,405.472,368,399.5,368s-11.561,1.671-16.325,4.569l-46.368-46.368
		C353.684,311.746,375.589,303,399.5,303c53.21,0,96.5,43.29,96.5,96.5S452.71,496,399.5,496z M416,399.5
		c0,9.098-7.402,16.5-16.5,16.5s-16.5-7.402-16.5-16.5s7.402-16.5,16.5-16.5S416,390.402,416,399.5z"/>
	<path d="M279.5,248c-4.142,0-7.5,3.358-7.5,7.5c0,9.098-7.402,16.5-16.5,16.5s-16.5-7.402-16.5-16.5s7.402-16.5,16.5-16.5
		c4.142,0,7.5-3.358,7.5-7.5s-3.358-7.5-7.5-7.5c-17.369,0-31.5,14.131-31.5,31.5s14.131,31.5,31.5,31.5s31.5-14.131,31.5-31.5
		C287,251.358,283.642,248,279.5,248z"/>
</g>
<g>
</g>
<g>
</g>
<g>
</g>
<g>
</g>
<g>
</g>
<g>
</g>
<g>
</g>
<g>
</g>
<g>
</g>
<g>
</g>
<g>
</g>
<g>
</g>
<g>
</g>
<g>
</g>
<g>
</g>
</svg>
